<svg version="1.1"
	 xmlns="http://www.w3.org/2000/svg" xmlns:xlink="http://www.w3.org/1999/xlink" xmlns:a="http://ns.adobe.com/AdobeSVGViewerExtensions/3.0/"
	 x="0px" y="0px" width="246.7px" height="42.4px" viewBox="0 0 246.7 42.4" style="enable-background:new 0 0 246.7 42.4;"
	 xml:space="preserve">
<style type="text/css">
	.st0{fill:#58595B;}
	.st1{fill:#941A1D;}
</style>
<defs>
</defs>
<g>
	<g id="XMLID_21_">
		<path id="XMLID_33_" class="st0" d="M5,12.1c1.1,0,2,0.1,2.8,0.4c0.8,0.2,1.4,0.6,2,1c0.5,0.5,0.9,1,1.2,1.6
			c0.3,0.6,0.4,1.4,0.4,2.1c0,0.8-0.1,1.5-0.4,2.1c-0.3,0.6-0.7,1.2-1.2,1.7c-0.5,0.5-1.2,0.8-2,1.1C6.9,22.5,6,22.6,5,22.6H2.3v6.3
			H0V12.1H5z M5,20.8c0.6,0,1.2-0.1,1.7-0.3c0.5-0.2,0.9-0.4,1.3-0.7c0.3-0.3,0.6-0.7,0.8-1.1C8.9,18.3,9,17.8,9,17.3
			c0-1.1-0.3-1.9-1-2.5c-0.7-0.6-1.7-0.9-3-0.9H2.3v6.9H5z"/>
		<path id="XMLID_31_" class="st0" d="M25.3,27v1.9h-9.5V12.1h2.3V27H25.3z"/>
		<path id="XMLID_28_" class="st0" d="M44.5,28.9h-1.8c-0.2,0-0.4-0.1-0.5-0.2c-0.1-0.1-0.2-0.2-0.3-0.4l-1.6-4.1h-7.5l-1.6,4.1
			c0,0.1-0.1,0.3-0.3,0.4c-0.1,0.1-0.3,0.2-0.5,0.2h-1.8l6.7-16.8h2.3L44.5,28.9z M39.8,22.7l-2.6-6.8c-0.1-0.2-0.2-0.4-0.2-0.7
			c-0.1-0.3-0.2-0.6-0.2-0.9c-0.2,0.6-0.3,1.2-0.5,1.6l-2.6,6.8H39.8z"/>
		<path id="XMLID_26_" class="st0" d="M62.4,12.1v16.8h-1.1c-0.2,0-0.3,0-0.5-0.1c-0.1-0.1-0.2-0.2-0.4-0.3l-9.7-12.7
			c0,0.2,0,0.4,0,0.6c0,0.2,0,0.4,0,0.5v12h-2V12.1H50c0.1,0,0.2,0,0.3,0c0.1,0,0.1,0,0.2,0.1c0.1,0,0.1,0.1,0.2,0.1
			c0.1,0.1,0.1,0.1,0.2,0.2l9.7,12.7c0-0.2,0-0.4,0-0.6c0-0.2,0-0.4,0-0.5V12.1H62.4z"/>
		<path id="XMLID_24_" class="st0" d="M79,27.1l0,1.9H68.7V12.1H79V14h-8.1v5.6h6.5v1.8h-6.5v5.7H79z"/>
		<path id="XMLID_22_" class="st0" d="M96.1,14h-5.4v14.9h-2.3V14h-5.5v-1.9h13.2V14z"/>
	</g>
	<g id="XMLID_6_">
		<path id="XMLID_19_" class="st0" d="M163.2,25.5c0.1,0,0.2,0.1,0.3,0.2l0.9,1c-0.7,0.8-1.5,1.4-2.5,1.9c-1,0.4-2.2,0.7-3.6,0.7
			c-1.2,0-2.3-0.2-3.3-0.6c-1-0.4-1.8-1-2.5-1.8c-0.7-0.8-1.2-1.7-1.6-2.7c-0.4-1.1-0.6-2.2-0.6-3.5c0-1.3,0.2-2.4,0.6-3.5
			c0.4-1.1,1-2,1.7-2.7c0.7-0.8,1.6-1.3,2.6-1.8c1-0.4,2.1-0.6,3.3-0.6c1.2,0,2.3,0.2,3.2,0.6c0.9,0.4,1.7,0.9,2.4,1.6l-0.8,1
			c0,0.1-0.1,0.1-0.2,0.2c-0.1,0.1-0.2,0.1-0.3,0.1c-0.1,0-0.3-0.1-0.5-0.2c-0.2-0.2-0.5-0.3-0.8-0.5c-0.3-0.2-0.7-0.4-1.2-0.5
			c-0.5-0.2-1.1-0.2-1.8-0.2c-0.9,0-1.7,0.2-2.4,0.5c-0.7,0.3-1.3,0.7-1.9,1.3c-0.5,0.6-0.9,1.3-1.2,2.1c-0.3,0.8-0.4,1.7-0.4,2.8
			c0,1,0.2,2,0.5,2.8c0.3,0.8,0.7,1.5,1.2,2.1c0.5,0.6,1.1,1,1.8,1.3c0.7,0.3,1.5,0.4,2.3,0.4c0.5,0,1,0,1.4-0.1
			c0.4-0.1,0.8-0.2,1.1-0.3c0.3-0.1,0.7-0.3,0.9-0.5c0.3-0.2,0.6-0.4,0.9-0.7C163,25.5,163.1,25.5,163.2,25.5z"/>
		<path id="XMLID_16_" class="st0" d="M183.3,28.9h-1.8c-0.2,0-0.4-0.1-0.5-0.2c-0.1-0.1-0.2-0.2-0.3-0.4l-1.6-4.1h-7.5l-1.6,4.1
			c0,0.1-0.1,0.3-0.3,0.4c-0.1,0.1-0.3,0.2-0.5,0.2h-1.8l6.7-16.8h2.3L183.3,28.9z M178.6,22.7l-2.6-6.8c-0.1-0.2-0.2-0.4-0.2-0.7
			c-0.1-0.3-0.2-0.6-0.2-0.9c-0.2,0.6-0.3,1.2-0.5,1.6l-2.6,6.8H178.6z"/>
		<path id="XMLID_14_" class="st0" d="M196.6,14.7c-0.1,0.1-0.1,0.2-0.2,0.3c-0.1,0.1-0.2,0.1-0.3,0.1c-0.1,0-0.3-0.1-0.5-0.2
			c-0.2-0.1-0.4-0.3-0.7-0.4c-0.3-0.2-0.6-0.3-1-0.4c-0.4-0.1-0.8-0.2-1.4-0.2c-0.5,0-1,0.1-1.3,0.2c-0.4,0.1-0.7,0.3-1,0.6
			c-0.3,0.2-0.5,0.5-0.6,0.8c-0.1,0.3-0.2,0.7-0.2,1c0,0.5,0.1,0.9,0.3,1.2c0.2,0.3,0.5,0.6,0.9,0.8s0.8,0.4,1.3,0.6
			c0.5,0.2,1,0.3,1.5,0.5c0.5,0.2,1,0.4,1.5,0.6c0.5,0.2,0.9,0.5,1.3,0.8c0.4,0.3,0.7,0.7,0.9,1.2c0.2,0.5,0.3,1.1,0.3,1.8
			c0,0.7-0.1,1.4-0.4,2.1c-0.3,0.6-0.6,1.2-1.1,1.7c-0.5,0.5-1.1,0.9-1.8,1.1c-0.7,0.3-1.5,0.4-2.4,0.4c-1.1,0-2.1-0.2-3-0.6
			c-0.9-0.4-1.7-0.9-2.3-1.6l0.7-1.1c0.1-0.1,0.1-0.2,0.2-0.2c0.1-0.1,0.2-0.1,0.3-0.1c0.1,0,0.2,0,0.3,0.1c0.1,0.1,0.3,0.2,0.4,0.3
			c0.2,0.1,0.4,0.3,0.6,0.4c0.2,0.1,0.5,0.3,0.7,0.4c0.3,0.1,0.6,0.2,0.9,0.3s0.7,0.1,1.2,0.1c0.5,0,1-0.1,1.4-0.2
			c0.4-0.1,0.8-0.4,1.1-0.6c0.3-0.3,0.5-0.6,0.7-1c0.2-0.4,0.2-0.8,0.2-1.3c0-0.5-0.1-0.9-0.3-1.2s-0.5-0.6-0.9-0.8
			c-0.4-0.2-0.8-0.4-1.3-0.6c-0.5-0.2-1-0.3-1.5-0.5c-0.5-0.2-1-0.3-1.5-0.6s-0.9-0.5-1.3-0.8c-0.4-0.3-0.7-0.8-0.9-1.3
			c-0.2-0.5-0.3-1.1-0.3-1.9c0-0.6,0.1-1.2,0.3-1.7c0.2-0.6,0.6-1,1-1.5c0.4-0.4,1-0.8,1.6-1c0.6-0.3,1.4-0.4,2.2-0.4
			c0.9,0,1.8,0.1,2.6,0.4c0.8,0.3,1.4,0.7,2,1.3L196.6,14.7z"/>
		<path id="XMLID_12_" class="st0" d="M205,28.9h-2.3V12.1h2.3V28.9z"/>
		<path id="XMLID_10_" class="st0" d="M224.8,12.1v16.8h-1.1c-0.2,0-0.3,0-0.5-0.1c-0.1-0.1-0.2-0.2-0.4-0.3l-9.7-12.7
			c0,0.2,0,0.4,0,0.6c0,0.2,0,0.4,0,0.5v12h-2V12.1h1.2c0.1,0,0.2,0,0.3,0c0.1,0,0.1,0,0.2,0.1c0.1,0,0.1,0.1,0.2,0.1
			c0.1,0.1,0.1,0.1,0.2,0.2l9.7,12.7c0-0.2,0-0.4,0-0.6c0-0.2,0-0.4,0-0.5V12.1H224.8z"/>
		<path id="XMLID_7_" class="st0" d="M246.7,20.5c0,1.3-0.2,2.4-0.6,3.5c-0.4,1.1-1,2-1.7,2.7c-0.7,0.8-1.6,1.3-2.6,1.8
			c-1,0.4-2.1,0.6-3.4,0.6c-1.2,0-2.4-0.2-3.4-0.6c-1-0.4-1.9-1-2.6-1.8c-0.7-0.8-1.3-1.7-1.7-2.7c-0.4-1.1-0.6-2.2-0.6-3.5
			c0-1.3,0.2-2.4,0.6-3.5c0.4-1.1,1-2,1.7-2.7c0.7-0.8,1.6-1.4,2.6-1.8c1-0.4,2.1-0.6,3.4-0.6c1.2,0,2.4,0.2,3.4,0.6
			c1,0.4,1.9,1,2.6,1.8c0.7,0.8,1.3,1.7,1.7,2.7C246.5,18.1,246.7,19.3,246.7,20.5z M244.3,20.5c0-1-0.1-2-0.4-2.8
			c-0.3-0.8-0.7-1.5-1.2-2.1c-0.5-0.6-1.1-1-1.9-1.3c-0.7-0.3-1.6-0.5-2.5-0.5c-0.9,0-1.7,0.2-2.5,0.5c-0.7,0.3-1.4,0.7-1.9,1.3
			c-0.5,0.6-0.9,1.3-1.2,2.1c-0.3,0.8-0.4,1.7-0.4,2.8c0,1,0.1,2,0.4,2.8c0.3,0.8,0.7,1.5,1.2,2.1c0.5,0.6,1.1,1,1.9,1.3
			c0.7,0.3,1.6,0.5,2.5,0.5c0.9,0,1.7-0.2,2.5-0.5c0.7-0.3,1.4-0.7,1.9-1.3c0.5-0.6,0.9-1.3,1.2-2.1
			C244.2,22.5,244.3,21.6,244.3,20.5z"/>
	</g>
	<g id="XMLID_1_">
		<path id="XMLID_5_" class="st1" d="M123.3,0c-4.4,0-8.5,1.3-11.9,3.6h23.8C131.7,1.3,127.7,0,123.3,0z"/>
		<path id="XMLID_4_" class="st1" d="M128.2,28.2l-5.7,12.2c-0.4,0.7-0.9,1.3-1.5,1.9c0.8,0.1,1.5,0.1,2.3,0.1
			c11.7,0,21.2-9.5,21.2-21.2c0-1.4-0.1-2.8-0.4-4.1C140,20.6,134.5,24.5,128.2,28.2z"/>
		<path id="XMLID_3_" class="st1" d="M113.5,40l2.8-5.7c-2.5,1.1-4.9,2-7,2.8C110.6,38.2,112,39.2,113.5,40z"/>
		<path id="XMLID_2_" class="st1" d="M150,5.1c-1-1.7-4.8-1.6-10.2,0c3.7-0.9,6.2-0.8,6.9,0.4c0.8,1.4-0.8,4-4,7.1
			c-1.3-2.8-3.1-5.3-5.4-7.3v1.9c0,1-0.1,1.9-0.4,2.5c-0.2,0.6-0.5,1.2-0.7,1.6l-4.6,9.8c-1.9,1.3-4,2.5-6.1,3.8
			c-2,1.2-4.1,2.3-6,3.3l6.6-13.3c0.4-0.8,0.8-1.5,1.3-2.1c0.4-0.6,0.9-1.2,1.4-1.8h-17.4c-0.3,0-0.5,0-0.7-0.1
			c-0.2-0.1-0.4-0.2-0.6-0.4c-0.2-0.2-0.3-0.4-0.4-0.6c-0.1-0.2-0.2-0.5-0.2-0.7v-4c-4.5,3.9-7.4,9.6-7.4,16.1c0,4.6,1.5,8.9,4,12.4
			c-4.3,1.2-7.3,1.3-8.1-0.1c-0.7-1.2,0.5-3.4,3.1-6.2c-4.1,3.9-6.1,7.1-5.1,8.9c2,3.5,15.8-0.6,30.6-9.2
			C141.6,18.5,152,8.6,150,5.1z"/>
	</g>
</g>
</svg>
