<?xml version="1.0" encoding="utf-8"?>
<!-- Generator: Adobe Illustrator 21.0.2, SVG Export Plug-In . SVG Version: 6.00 Build 0)  -->
<svg version="1.1" id="Layer_1" xmlns="http://www.w3.org/2000/svg" xmlns:xlink="http://www.w3.org/1999/xlink" x="0px" y="0px"
	 viewBox="0 0 29 86.6" style="enable-background:new 0 0 29 86.6;" xml:space="preserve">
<style type="text/css">
	.st0{fill:#AFD400;}
	.st1{fill:#FFB400;}
	.st2{opacity:0.3;fill:#FFFFFF;}
	.st3{fill:#E4FF73;}
	.st4{opacity:0.3;fill:#2E9ACE;}
	.st5{opacity:0.5;fill:#FFB400;}
	.st6{fill:#FF4412;}
	.st7{fill:#662A18;}
	.st8{fill:#FFFFFF;}
	.st9{opacity:0.5;}
	.st10{clip-path:url(#SVGID_2_);}
	.st11{fill:#BC6226;}
	.st12{opacity:0.3;}
	.st13{fill:#A01A00;}
	.st14{fill:#2E9ACE;}
	.st15{opacity:0.2;}
	.st16{fill:#4B9D00;}
	.st17{fill:#87BE00;}
	.st18{fill:#FFD629;}
	.st19{fill:#E27F3B;}
	.st20{opacity:0.5;fill:#FF4412;}
	.st21{fill:#B72B18;}
	.st22{fill:#A8441B;}
	.st23{fill:#EF9659;}
	.st24{opacity:0.1;}
	.st25{opacity:0.2;fill:#FFFFFF;}
</style>
<g>
	<path class="st6" d="M22.2,26.1c0,0.2,0.1,0.5,0.1,0.8C23,33.8,16.6,41.1,9.9,48c-1.6,1.6-1.5,2.9-1.3,3.7
		c0.5,2.2,3.6,5.8,10.7,8.5c4,1.5,7,4.2,8.5,7.9c3.2,7.9-0.9,17.4-1.4,18.5l-7.7-3.5c0.9-2,2.8-7.9,1.3-11.7
		c-0.6-1.5-1.8-2.5-3.6-3.2c-8.8-3.3-14.7-8.6-16-14.5c-0.9-4.1,0.3-8.1,3.5-11.4c2.6-2.7,10.5-10.9,10.1-14.4c0-0.2,0-0.4-0.6-0.8
		C5,21.2-3.5,7.3,1.6,0l6.9,4.8C7.6,6.8,12,15.7,18.1,20C20.4,21.5,21.8,23.6,22.2,26.1z"/>
</g>
</svg>
