<?xml version="1.0" encoding="utf-8"?>
<!-- Generator: Adobe Illustrator 21.0.2, SVG Export Plug-In . SVG Version: 6.00 Build 0)  -->
<svg version="1.1" id="Layer_1" xmlns="http://www.w3.org/2000/svg" xmlns:xlink="http://www.w3.org/1999/xlink" x="0px" y="0px"
	 viewBox="0 0 53.5 74.6" style="enable-background:new 0 0 53.5 74.6;" xml:space="preserve">
<style type="text/css">
	.st0{fill:#AFD400;}
	.st1{fill:#FFB400;}
	.st2{opacity:0.3;fill:#FFFFFF;}
	.st3{fill:#E4FF73;}
	.st4{opacity:0.3;fill:#2E9ACE;}
	.st5{opacity:0.5;fill:#FFB400;}
	.st6{fill:#FF4412;}
	.st7{fill:#662A18;}
	.st8{fill:#FFFFFF;}
	.st9{opacity:0.5;}
	.st10{clip-path:url(#SVGID_2_);}
	.st11{fill:#BC6226;}
	.st12{opacity:0.3;}
	.st13{fill:#A01A00;}
	.st14{fill:#2E9ACE;}
	.st15{opacity:0.2;}
	.st16{fill:#4B9D00;}
	.st17{fill:#87BE00;}
	.st18{fill:#FFD629;}
	.st19{fill:#E27F3B;}
	.st20{opacity:0.5;fill:#FF4412;}
	.st21{fill:#B72B18;}
	.st22{fill:#A8441B;}
	.st23{fill:#EF9659;}
	.st24{opacity:0.1;}
	.st25{opacity:0.2;fill:#FFFFFF;}
</style>
<g>
	<path class="st14" d="M7.5,42c0.2-0.2,0.3-0.4,0.5-0.6c4.8-4.9,14.6-4.7,24.2-4.1c2.3,0.2,3.2-0.7,3.7-1.3
		c1.4-1.8,2.1-6.5-0.4-13.7c-1.4-4-1.2-8.1,0.6-11.6c4-7.6,13.9-10.5,15-10.8l2.2,8.2c-2.1,0.6-7.9,2.9-9.8,6.6
		c-0.8,1.4-0.8,3-0.1,4.8c3.1,8.9,2.8,16.8-0.8,21.6c-2.5,3.3-6.4,5-11,4.7c-3.7-0.3-15.1-1-17.6,1.5c-0.1,0.1-0.3,0.3-0.2,1
		c0.9,10-4.2,25.5-13.1,26.3L0,66.2c2.1-0.6,6.1-9.7,5.4-17.1C5.2,46.4,5.9,43.9,7.5,42z"/>
</g>
</svg>
