<?xml version="1.0" encoding="utf-8"?>
<!-- Generator: Adobe Illustrator 21.0.2, SVG Export Plug-In . SVG Version: 6.00 Build 0)  -->
<svg version="1.1" id="Layer_1" xmlns="http://www.w3.org/2000/svg" xmlns:xlink="http://www.w3.org/1999/xlink" x="0px" y="0px"
	 viewBox="0 0 89.6 26.4" style="enable-background:new 0 0 89.6 26.4;" xml:space="preserve">
<style type="text/css">
	.st0{fill:#AFD400;}
	.st1{fill:#FFB400;}
	.st2{opacity:0.3;fill:#FFFFFF;}
	.st3{fill:#E4FF73;}
	.st4{opacity:0.3;fill:#2E9ACE;}
	.st5{opacity:0.5;fill:#FFB400;}
	.st6{fill:#FF4412;}
	.st7{fill:#662A18;}
	.st8{fill:#FFFFFF;}
	.st9{opacity:0.5;}
	.st10{clip-path:url(#SVGID_2_);}
	.st11{fill:#BC6226;}
	.st12{opacity:0.3;}
	.st13{fill:#A01A00;}
	.st14{fill:#2E9ACE;}
	.st15{opacity:0.2;}
	.st16{fill:#4B9D00;}
	.st17{fill:#87BE00;}
	.st18{fill:#FFD629;}
	.st19{fill:#E27F3B;}
	.st20{opacity:0.5;fill:#FF4412;}
	.st21{fill:#B72B18;}
	.st22{fill:#A8441B;}
	.st23{fill:#EF9659;}
	.st24{opacity:0.1;}
	.st25{opacity:0.2;fill:#FFFFFF;}
</style>
<g>
	<path class="st0" d="M60.2,26.4c-0.3,0-0.5,0-0.8,0c-6.9-0.5-13-8.2-18.6-16c-1.3-1.8-2.6-2-3.4-2c-2.3,0.1-6.4,2.6-10.2,9.1
		c-2.2,3.7-5.4,6.1-9.3,7c-8.3,1.8-17-4-17.9-4.6l4.8-7c1.8,1.2,7.3,4.2,11.3,3.3c1.6-0.4,2.8-1.3,3.8-3C24.7,5.1,31,0.3,37,0
		c4.2-0.2,8,1.7,10.7,5.5c2.2,3,8.9,12.2,12.4,12.5c0.2,0,0.4,0,0.9-0.4c7.1-7.1,22.2-13.1,28.6-6.8l-6,6
		c-1.7-1.2-11.3,1.5-16.6,6.8C65.1,25.4,62.8,26.4,60.2,26.4z"/>
</g>
</svg>
